<?xml version="1.0" standalone="no"?>
<!DOCTYPE svg PUBLIC "-//W3C//DTD SVG 20010904//EN"
 "http://www.w3.org/TR/2001/REC-SVG-20010904/DTD/svg10.dtd">
<svg version="1.0" xmlns="http://www.w3.org/2000/svg"
 width="512.000000pt" height="512.000000pt" viewBox="0 0 512.000000 512.000000"
 preserveAspectRatio="xMidYMid meet">
<metadata>
Created by potrace 1.14, written by Peter Selinger 2001-2017
</metadata>
<g transform="translate(0.000000,512.000000) scale(0.100000,-0.100000)"
fill="#000000" stroke="none">
<path d="M469 5027 c-1 -7 -1 -246 0 -532 0 -286 1 -570 1 -631 l0 -110 35
-20 c34 -18 637 -389 720 -442 73 -47 109 -69 258 -160 81 -50 144 -92 140
-94 -4 -2 -26 -3 -48 -2 -22 1 -152 5 -290 9 -137 4 -293 8 -345 10 -320 10
-345 9 -386 -17 -21 -14 -46 -28 -54 -31 -8 -4 -31 -17 -50 -28 -19 -12 -125
-73 -235 -136 -110 -63 -203 -118 -207 -122 -4 -3 10 -36 31 -71 21 -36 57
-98 80 -138 l42 -73 47 27 c26 16 65 38 87 50 22 12 117 66 210 120 l170 99
105 -1 c208 -2 923 -24 928 -29 2 -1 -57 -36 -130 -77 -73 -41 -351 -198 -618
-348 -267 -151 -546 -308 -620 -350 l-135 -76 -1 -887 -1 -886 161 2 161 2 0
788 0 789 60 35 c33 20 80 46 105 60 25 13 52 28 60 34 73 47 600 335 600 329
0 -5 -9 -33 -19 -62 -17 -48 -33 -109 -46 -178 -31 -161 -24 -394 15 -540 83
-311 249 -556 505 -748 43 -32 163 -101 224 -129 83 -38 248 -88 326 -99 28
-3 59 -8 70 -10 35 -7 249 -6 300 1 245 35 446 120 640 271 256 198 423 479
480 805 16 92 23 319 11 376 -3 16 -8 44 -11 63 -11 63 -24 114 -50 193 -14
43 -25 80 -25 82 0 3 17 -5 38 -17 21 -13 47 -28 57 -35 19 -11 329 -193 498
-292 43 -25 97 -57 120 -70 23 -13 58 -34 77 -46 l35 -22 0 -789 0 -789 161
-2 161 -2 2 817 c2 449 3 846 4 882 l2 65 -104 63 c-58 34 -106 62 -108 62 -2
0 -20 11 -41 24 -37 23 -295 175 -364 215 -63 35 -93 52 -363 211 -143 84
-303 178 -355 208 -143 82 -142 82 -95 83 22 0 83 2 135 4 225 8 584 17 695
19 l120 1 75 -44 c41 -24 93 -54 115 -66 22 -13 103 -59 180 -104 77 -44 143
-77 147 -73 7 8 98 163 133 229 13 24 20 45 17 47 -4 2 -141 80 -304 174 -260
148 -301 169 -335 166 -42 -3 -311 -11 -653 -20 -124 -3 -251 -7 -282 -8 -32
-1 -58 -1 -58 0 0 2 36 24 129 79 26 15 383 236 411 254 14 9 33 20 42 26 43
26 182 112 268 165 52 33 146 90 207 127 l113 68 0 165 c2 430 2 1087 1 1101
-1 15 -20 17 -161 17 l-160 1 -2 -551 -3 -552 -500 -308 c-275 -169 -501 -308
-502 -308 0 0 5 21 13 47 35 115 35 292 1 418 -62 226 -227 421 -438 519 -122
56 -187 70 -334 69 -111 0 -143 -4 -220 -27 -255 -77 -454 -266 -541 -516 -48
-138 -51 -350 -8 -473 18 -51 26 -54 -204 89 -103 64 -194 120 -202 125 -8 5
-145 89 -305 188 l-290 178 -5 549 -5 549 -157 2 c-113 1 -158 -2 -159 -10z"/>
</g>
</svg>
